<svg width="32" height="32" viewBox="0 0 32 32" fill="none" xmlns="http://www.w3.org/2000/svg">
<g clip-path="url(#clip0_2106_2)">
<circle cx="16" cy="16" r="16" fill="url(#paint0_linear_2106_2)"/>
<path d="M20.3854 2.02702C21.4375 1.81702 22.2678 2.80775 21.993 3.77951L20.2754 9.84533L22.3424 9.43895C23.5136 9.20858 24.3465 10.4308 23.855 11.4294L23.8544 11.4305L15.0256 29.3078L14.9969 29.353C14.5854 30.0011 13.8405 30.1203 13.2924 29.8914C12.7476 29.6639 12.314 29.0608 12.4639 28.3221L13.6566 22.441L12.8147 22.7016C11.7733 23.024 10.8425 22.0936 11.0433 21.0907L11.7367 17.632L9.70618 18.1094C8.75485 18.333 7.95185 17.5352 8.00232 16.6675L8.65515 5.43452C8.69109 4.81603 9.14477 4.27085 9.77197 4.14565L20.3854 2.02702Z" fill="white"/>
<path d="M20.5811 3.00767L9.96767 5.12631C9.79807 5.16016 9.66374 5.31674 9.65353 5.49249L9.00069 16.7255C8.98585 16.98 9.22991 17.1941 9.47738 17.1359L12.4324 16.4412C12.7088 16.3762 12.9587 16.6243 12.9018 16.9075L12.0239 21.287C11.9649 21.5818 12.2364 21.8338 12.5189 21.7463L14.3442 21.1815C14.627 21.094 14.899 21.3467 14.8391 21.6417L13.444 28.5209C13.3567 28.9512 13.9185 29.1858 14.1527 28.817L22.9578 10.9877C23.1027 10.6934 22.8529 10.3577 22.5356 10.4201L19.4938 11.0181C19.2081 11.0742 18.9649 10.8031 19.0455 10.5183L21.0308 3.50738C21.1115 3.22186 20.8672 2.95056 20.5811 3.00767Z" fill="url(#paint1_linear_2106_2)"/>
</g>
<defs>
<linearGradient id="paint0_linear_2106_2" x1="5" y1="4.99999" x2="29.4888" y2="23.7493" gradientUnits="userSpaceOnUse">
<stop stop-color="#41D1FF"/>
<stop offset="1" stop-color="#BD34FE"/>
</linearGradient>
<linearGradient id="paint1_linear_2106_2" x1="16" y1="3" x2="18.1483" y2="28.2749" gradientUnits="userSpaceOnUse">
<stop stop-color="#FFEA83"/>
<stop offset="0.1" stop-color="#FFDD35"/>
<stop offset="1" stop-color="#FFA800"/>
</linearGradient>
<clipPath id="clip0_2106_2">
<rect width="32" height="32" fill="white"/>
</clipPath>
</defs>
</svg>
